<?xml version="1.0" encoding="UTF-8"?>
<svg width="48px" height="48px" viewBox="0 0 48 48" version="1.1" xmlns="http://www.w3.org/2000/svg" xmlns:xlink="http://www.w3.org/1999/xlink">
    <!-- Generator: Sketch 52.3 (67297) - http://www.bohemiancoding.com/sketch -->
    <title>icon / 1</title>
    <desc>Created with Sketch.</desc>
    <g id="icon-/-1" stroke="none" stroke-width="1" fill="none" fill-rule="evenodd">
        <g transform="translate(0.000000, 0.000000)">
            <circle id="Oval" fill="#58C1B6" cx="24" cy="24" r="24"></circle>
            <path d="M14,20 L18.4,20 C18.7313708,20 19,20.2686292 19,20.6 L19,25 C19,27.7614237 16.7614237,30 14,30 C11.2385763,30 9,27.7614237 9,25 C9,22.2385763 11.2385763,20 14,20 Z M14,26.875 C15.0355339,26.875 15.875,26.0355339 15.875,25 C15.875,23.9644661 15.0355339,23.125 14,23.125 C12.9644661,23.125 12.125,23.9644661 12.125,25 C12.125,26.0355339 12.9644661,26.875 14,26.875 Z" id="Combined-Shape" fill="#FFFFFF" opacity="0.5" transform="translate(14.000000, 25.000000) rotate(135.000000) translate(-14.000000, -25.000000) "></path>
            <path d="M34,20 L38.4,20 C38.7313708,20 39,20.2686292 39,20.6 L39,25 C39,27.7614237 36.7614237,30 34,30 C31.2385763,30 29,27.7614237 29,25 C29,22.2385763 31.2385763,20 34,20 Z M34,26.875 C35.0355339,26.875 35.875,26.0355339 35.875,25 C35.875,23.9644661 35.0355339,23.125 34,23.125 C32.9644661,23.125 32.125,23.9644661 32.125,25 C32.125,26.0355339 32.9644661,26.875 34,26.875 Z" id="Combined-Shape-Copy" fill="#FFFFFF" opacity="0.5" transform="translate(34.000000, 25.000000) rotate(135.000000) translate(-34.000000, -25.000000) "></path>
            <path d="M24.0000002,16 L31,16 C31.5522847,16 32,16.4477153 32,17 L32,24 C32,28.418278 28.418278,32 24,32 C19.581722,32 16,28.418278 16,24 C16,19.581722 19.581722,16 24,16 Z M24,27 C25.6568542,27 27,25.6568542 27,24 C27,22.3431458 25.6568542,21 24,21 C22.3431458,21 21,22.3431458 21,24 C21,25.6568542 22.3431458,27 24,27 Z" id="Combined-Shape" fill="#FFFFFF" transform="translate(24.000000, 24.000000) rotate(135.000000) translate(-24.000000, -24.000000) "></path>
        </g>
    </g>
</svg>