<?xml version="1.0" standalone="no"?><!DOCTYPE svg PUBLIC "-//W3C//DTD SVG 1.1//EN" "http://www.w3.org/Graphics/SVG/1.1/DTD/svg11.dtd"><svg class="icon" width="200px" height="200.00px" viewBox="0 0 1024 1024" version="1.1" xmlns="http://www.w3.org/2000/svg"><path d="M560.974501 23.395513c-1.852254-1.856375-3.702448-3.710689-5.538218-5.538219l-0.243122-0.245181c-23.990707-23.572456-62.76854-23.475619-86.621202 0.247241C320.999445 164.622151 116.55305 423.892379 116.55305 631.066676v0.016483h0.243121C116.796171 854.32818 294.653759 1023.993819 511.991759 1023.993819c60.776182 0.004121 118.327917-13.639512 169.754234-37.988719z" fill="#7CE3FF" /><path d="M907.203829 631.074917h0.243121c0-208.931775-197.191905-457.945584-346.472449-607.677344-95.111902 136.613517-197.179543 321.618456-197.179542 488.813736h0.317293c0 219.161409 131.608928 398.654914 317.635801 473.793791 133.339622-63.139402 225.455776-198.347761 225.455776-354.930183z" fill="#B9F0FF" /><path d="M291.18001 790.712837a60.186922 47.929904 0 1 0 120.373844 0 60.186922 47.929904 0 1 0-120.373844 0Z" fill="#FF8E9E" /><path d="M735.195573 792.909169a60.186922 47.929904 0 1 0-120.373844 0 60.186922 47.929904 0 1 0 120.373844 0Z" fill="#FF8E9E" /><path d="M380.137649 704.726222a15.452619 15.452619 0 0 0-15.45262 15.452619v20.603492a15.452619 15.452619 0 0 0 30.905239 0v-20.603492a15.452619 15.452619 0 0 0-15.452619-15.452619zM643.862351 704.726222a15.452619 15.452619 0 0 0-15.452619 15.452619v20.603492a15.452619 15.452619 0 0 0 30.905239 0v-20.603492a15.452619 15.452619 0 0 0-15.45262-15.452619zM552.660992 733.023058a15.446438 15.446438 0 0 0-20.605553 7.275093c-3.432542 7.178257-10.901308 11.816103-19.025264 11.816103s-15.592723-4.637846-19.025265-11.816103a15.452619 15.452619 0 0 0-27.880646 13.33046c8.538087 17.854987 26.949368 29.390882 46.905911 29.390882s38.369884-11.535895 46.90591-29.390882a15.452619 15.452619 0 0 0-7.275093-20.605553z" fill="#313D40" /></svg>